<svg xmlns="http://www.w3.org/2000/svg" width="512" height="512" fill="none">
  <path fill="#000" d="M177.45 114.34a4.9 4.9 0 0 1 0-6.95l33.16-32.95a4.97 4.97 0 0 1 7 0l34.9 34.68a4.97 4.97 0 0 0 6.99 0l34.9-34.68a4.97 4.97 0 0 1 7 0l33.15 32.95a4.9 4.9 0 0 1 0 6.95l-34.9 34.68a4.9 4.9 0 0 0 0 6.96l34.9 34.68a4.9 4.9 0 0 1 0 6.95l-33.16 32.95a4.97 4.97 0 0 1-7 0L177.46 114.34ZM67.44 301.4a4.97 4.97 0 0 0 0 7l32.95 33.15a4.9 4.9 0 0 0 6.95 0L223.56 224.6a4.97 4.97 0 0 0 0-7l-32.95-33.15a4.9 4.9 0 0 0-6.95 0l-34.68 34.9a4.9 4.9 0 0 1-6.96 0l-34.68-34.9a4.9 4.9 0 0 0-6.95 0L67.44 217.6a4.97 4.97 0 0 0 0 7l34.68 34.9a4.97 4.97 0 0 1 0 6.99l-34.68 34.9Zm267.11 110.26a4.9 4.9 0 0 1 0 6.95l-33.16 32.95a4.97 4.97 0 0 1-7 0l-34.9-34.68a4.96 4.96 0 0 0-6.99 0l-34.9 34.68a4.97 4.97 0 0 1-7 0l-33.15-32.95a4.9 4.9 0 0 1 0-6.95l34.9-34.68a4.9 4.9 0 0 0 0-6.96l-34.9-34.68a4.9 4.9 0 0 1 0-6.95l33.16-32.95a4.97 4.97 0 0 1 7 0l116.94 116.22ZM288.44 301.4a4.97 4.97 0 0 0 0 7l32.95 33.15a4.9 4.9 0 0 0 6.95 0l34.68-34.9a4.9 4.9 0 0 1 6.96 0l34.68 34.9a4.9 4.9 0 0 0 6.95 0l32.95-33.16a4.97 4.97 0 0 0 0-7l-34.68-34.9a4.96 4.96 0 0 1 0-6.99l34.68-34.9a4.97 4.97 0 0 0 0-7l-32.95-33.15a4.9 4.9 0 0 0-6.95 0L288.44 301.4Z"/>
</svg>
